<svg width="71" height="75" viewBox="0 0 71 75" fill="none" xmlns="http://www.w3.org/2000/svg">
<path d="M27.682 0.000228609C32.693 -0.00477139 37.704 0.0722467 42.7125 0.231247C46.6575 6.83825 49.075 16.6883 51.8635 24.1048L63.8685 56.5792C66.118 62.5842 68.7425 68.5043 70.6185 74.6343L56.616 74.6243C54.6265 69.8543 52.638 65.0342 51.1415 60.0892C48.193 59.8792 45.202 59.9042 42.2455 59.8442C34.5245 59.9992 26.796 59.6342 19.064 59.8042C17.4415 64.7642 15.694 69.6792 13.824 74.5492C9.22097 74.6642 4.6045 74.6143 0 74.6343C2.5295 63.4593 7.82798 52.0392 11.829 41.2942C16.9335 27.5847 21.4825 13.2257 27.682 0.000228609ZM23.981 47.0342C27.8255 47.8142 31.889 47.6143 35.801 47.6243L46.64 47.5442C44.74 42.2442 37.9155 19.9652 34.875 16.9772C31.0105 26.7697 27.271 37.0242 23.981 47.0342Z" fill="black"/>
</svg>
