<svg width="472" height="81" viewBox="0 0 472 81" fill="none" xmlns="http://www.w3.org/2000/svg">
<path d="M213.38 22.1504C220.975 22.7119 224.99 24.8104 230.12 30.3629C230.81 29.7679 231.505 29.1784 232.205 28.5939C236.415 25.0064 240.785 22.5804 246.43 22.3364C252.1 22.0914 258.195 23.8259 262.26 27.8999C264.98 30.6209 266.63 34.1874 267.47 37.9064C269.455 46.7464 268.185 68.4214 268.13 78.4164C263.68 78.6463 259.175 78.5364 254.715 78.5614C254.475 70.6064 256.75 43.1064 251.885 38.3264C249.6 36.0764 246.655 35.0089 243.465 35.0654C240.81 35.1119 238.415 36.0024 236.6 37.9764C231.08 43.9714 233.115 59.3964 233.205 67.3564C233.32 71.0464 233.225 74.7314 233.13 78.4214C228.66 78.5464 224.17 78.4914 219.7 78.5164C219.235 66.0464 220.355 53.3914 218.925 40.9864C218.43 40.2764 217.93 39.5764 217.385 38.9064C215.67 36.7964 213.325 35.1319 210.545 34.9104C207.615 34.6774 204.28 35.9079 202.085 37.8314C200.015 39.6514 198.79 42.1414 198.175 44.8014C196.13 53.6864 198.11 68.6114 197.61 78.4264C193.165 78.4614 188.72 78.4614 184.27 78.4214C183.405 60.3764 184.1 42.0314 184.13 23.9584C187.295 24.0724 191.14 23.2659 194.17 23.9594C196.13 24.4079 197.035 25.4359 198.095 27.0384C198.19 27.1859 198.285 27.3354 198.38 27.4839C204.165 25.8064 206.025 23.2409 213.38 22.1504Z" fill="black"/>
<path d="M27.682 3.89671C32.693 3.89171 37.704 3.96873 42.7125 4.12773C46.6575 10.7347 49.075 20.5847 51.8635 28.0012L63.8685 60.4757C66.118 66.4807 68.7425 72.4007 70.6185 78.5307L56.616 78.5207C54.6265 73.7507 52.638 68.9307 51.1415 63.9857C48.193 63.7757 45.202 63.8007 42.2455 63.7407C34.5245 63.8957 26.796 63.5307 19.064 63.7007C17.4415 68.6607 15.694 73.5757 13.824 78.4457C9.22097 78.5607 4.6045 78.5107 0 78.5307C2.5295 67.3557 7.82798 55.9357 11.829 45.1907C16.9335 31.4812 21.4825 17.1222 27.682 3.89671ZM23.981 50.9307C27.8255 51.7107 31.889 51.5107 35.801 51.5207L46.64 51.4407C44.74 46.1407 37.9155 23.8617 34.875 20.8737C31.0105 30.6662 27.271 40.9207 23.981 50.9307Z" fill="black"/>
<path d="M141.19 22.1554C157.045 20.2284 171.505 31.4074 173.635 47.2399C175.765 63.0699 164.775 77.6749 148.97 80.0049C138.565 81.5399 128.14 77.3599 121.679 69.0649C115.217 60.7649 113.719 49.6349 117.758 39.9199C121.797 30.2109 130.748 23.4239 141.19 22.1554ZM147.835 67.1049C156.51 65.3399 162.16 56.9349 160.515 48.2349C158.87 39.5349 150.545 33.7689 141.82 35.2924C136.072 36.2949 131.308 40.3199 129.354 45.8199C127.399 51.3199 128.557 57.4449 132.383 61.8499C136.21 66.2599 142.115 68.2649 147.835 67.1049Z" fill="black"/>
<path d="M375.23 22.259C391.08 19.588 406.1 30.2675 408.78 46.1165C411.465 61.9665 400.795 76.9915 384.945 79.6865C369.08 82.3815 354.04 71.6965 351.355 55.8315C348.67 39.9665 359.365 24.9325 375.23 22.259ZM382.36 66.9565C388.075 66.0865 392.88 62.2165 394.95 56.8165C397.02 51.4215 396.03 45.3265 392.355 40.8615C388.68 36.3965 382.895 34.251 377.2 35.24C368.52 36.7465 362.675 44.9565 364.09 53.6515C365.505 62.3415 373.65 68.2765 382.36 66.9565Z" fill="black"/>
<path d="M446.24 22.6351C446.96 22.5586 447.68 22.5071 448.405 22.4816C454.305 22.3156 460.48 24.043 464.705 28.3105C467.305 30.9375 469.125 34.2996 470.095 37.8566C472.555 46.8916 471.185 68.3715 471.14 78.4865L457.65 78.6216C456.54 67.9165 458.43 56.8616 457.105 46.2816C456.675 42.8216 455.45 39.3815 452.57 37.2115C449.1 34.5985 445.4 34.9666 441.4 35.6486C439.765 36.2816 438.255 36.9216 436.99 38.1716C435.165 39.9866 434.12 42.5966 433.6 45.0816C431.9 53.2316 433.25 69.4415 433.16 78.4765C428.67 78.5915 424.165 78.5516 419.675 78.5866C419.1 60.4716 419.24 42.1366 419.575 24.0101C421.795 23.9576 431.37 23.1056 432.44 24.7996C433.1 25.8436 432.25 26.7806 433.475 27.7271C437.5 25.59 440.99 23.5956 445.505 22.7651L446.24 22.6351Z" fill="black"/>
<path d="M81.7296 7.26169C85.7161 7.18119 89.6751 7.34068 93.6571 7.51618C93.8636 12.8532 94.3696 18.4012 93.7571 23.7092C98.6051 24.1307 103.58 23.9922 108.448 24.0647C108.775 27.8587 108.658 31.6502 108.59 35.4522C103.762 35.5657 98.9221 35.4787 94.0921 35.4597C93.8816 43.2457 92.7571 52.3507 93.9546 60.0057C94.3196 62.3407 95.2901 64.6407 97.2646 66.0457C100.58 68.3957 104.736 67.4957 108.43 66.8057C108.749 70.0557 108.652 73.3607 108.658 76.6307C108.644 77.1857 108.449 77.5957 108.261 78.1157C106.383 79.2357 104.066 79.3157 101.919 79.3757C96.3291 79.5357 88.8761 79.0957 84.7356 74.9357C77.1921 67.3607 79.8891 45.6607 79.9636 35.4267L69.4281 35.4952C69.0956 31.6897 69.2506 27.8142 69.2756 23.9962L80.2291 23.8607C80.1036 19.3627 79.2551 13.1607 80.3841 8.86118C80.6511 7.84518 80.8856 7.77369 81.7296 7.26169Z" fill="black"/>
<path d="M316.84 7.52371L330.225 7.51172C330.21 12.8777 330.17 18.2437 330.1 23.6097C334.885 23.9657 339.595 23.8647 344.38 23.7282C344.67 27.5997 344.69 31.4862 344.44 35.3602C339.69 35.6397 334.895 35.5022 330.14 35.4922C330.16 42.9917 329.29 50.9117 329.835 58.3617C330.035 61.0667 330.7 63.8417 332.93 65.6067C336.415 68.3617 340.755 67.3917 344.77 66.8017C345.14 70.2167 345.16 73.6967 345.285 77.1317L344.83 78.1817C342.8 79.0467 340.625 79.0517 338.445 79.1767C332.545 79.5067 326.09 79.0467 321.565 74.7717C313.88 67.5067 316.195 45.8117 316.09 35.5217L305.475 35.5937C305.265 31.7567 305.295 27.8822 305.225 24.0387C309.045 24.0092 312.835 23.9112 316.65 23.6852C316.46 18.3347 316.37 12.8597 316.84 7.52371Z" fill="black"/>
<path d="M282.545 24.1223C286.88 23.9913 291.235 24.0528 295.57 24.0438C295.735 31.7198 296.63 76.0553 295.01 78.4503L282.26 78.5204C281.13 72.8854 280.78 28.3963 282.545 24.1223Z" fill="black"/>
<path d="M282.24 0L295.63 0.0335083C295.95 4.45301 296.23 8.71699 295.405 13.1005C290.845 13.5235 286.34 13.2605 281.78 13.0295C281.6 8.85551 281.06 4.04 282.24 0Z" fill="black"/>
</svg>
