<svg width="679" height="182" viewBox="0 0 679 182" fill="none" xmlns="http://www.w3.org/2000/svg">
<path d="M62.7816 13.5C64.5816 15.485 69.1601 16.849 71.6781 18.146C79.1096 21.9725 86.3461 26.005 93.3051 30.643C96.1026 33.02 99.4277 36.291 102.897 37.607C117.901 47.7295 141.081 68.5185 151.63 82.9505C150.026 86.0055 147.55 88.4755 145.065 90.8205C140.257 86.8455 136.171 81.2355 131.813 76.702C121.75 66.2295 105.916 51.6575 93.5207 44.485C80.7007 52.142 66.0412 66.288 55.7572 77.192C51.6202 81.5755 47.8137 86.4055 43.4882 90.5855C40.6812 88.3555 38.4512 84.9105 36.3892 81.9905C40.3867 79.403 50.9352 66.157 55.9667 61.293C64.6487 52.899 74.0662 45.4135 83.3661 37.739C76.3027 31.897 66.6682 29.0715 59.9602 22.985C61.2337 19.7865 62.1871 16.888 62.7816 13.5Z" fill="#7C8A9F"/>
<path d="M420.38 74.1504C427.975 74.7119 431.99 76.8104 437.12 82.3629C437.81 81.7679 438.505 81.1784 439.205 80.5939C443.415 77.0064 447.785 74.5804 453.43 74.3364C459.1 74.0914 465.195 75.8259 469.26 79.8999C471.98 82.6209 473.63 86.1874 474.47 89.9064C476.455 98.7464 475.185 120.421 475.13 130.416C470.68 130.646 466.175 130.536 461.715 130.561C461.475 122.606 463.75 95.1064 458.885 90.3264C456.6 88.0764 453.655 87.0089 450.465 87.0654C447.81 87.1119 445.415 88.0024 443.6 89.9764C438.08 95.9714 440.115 111.396 440.205 119.356C440.32 123.046 440.225 126.731 440.13 130.421C435.66 130.546 431.17 130.491 426.7 130.516C426.235 118.046 427.355 105.391 425.925 92.9864C425.43 92.2764 424.93 91.5764 424.385 90.9064C422.67 88.7964 420.325 87.1319 417.545 86.9104C414.615 86.6774 411.28 87.9079 409.085 89.8314C407.015 91.6514 405.79 94.1414 405.175 96.8014C403.13 105.686 405.11 120.611 404.61 130.426C400.165 130.461 395.72 130.461 391.27 130.421C390.405 112.376 391.1 94.0314 391.13 75.9584C394.295 76.0724 398.14 75.2659 401.17 75.9594C403.13 76.4079 404.035 77.4359 405.095 79.0384C405.19 79.1859 405.285 79.3354 405.38 79.4839C411.165 77.8064 413.025 75.2409 420.38 74.1504Z" fill="black"/>
<path d="M234.682 55.8967C239.693 55.8917 244.704 55.9687 249.712 56.1277C253.657 62.7347 256.075 72.5847 258.863 80.0012L270.868 112.476C273.118 118.481 275.743 124.401 277.618 130.531L263.616 130.521C261.626 125.751 259.638 120.931 258.141 115.986C255.193 115.776 252.202 115.801 249.245 115.741C241.524 115.896 233.796 115.531 226.064 115.701C224.441 120.661 222.694 125.576 220.824 130.446C216.221 130.561 211.604 130.511 207 130.531C209.53 119.356 214.828 107.936 218.829 97.1907C223.933 83.4812 228.482 69.1222 234.682 55.8967ZM230.981 102.931C234.825 103.711 238.889 103.511 242.801 103.521L253.64 103.441C251.74 98.1407 244.916 75.8617 241.875 72.8737C238.01 82.6662 234.271 92.9207 230.981 102.931Z" fill="black"/>
<path d="M348.19 74.1554C364.045 72.2284 378.505 83.4074 380.635 99.2399C382.765 115.07 371.775 129.675 355.97 132.005C345.565 133.54 335.14 129.36 328.679 121.065C322.217 112.765 320.719 101.635 324.758 91.9199C328.797 82.2109 337.748 75.4239 348.19 74.1554ZM354.835 119.105C363.51 117.34 369.16 108.935 367.515 100.235C365.87 91.5349 357.545 85.7689 348.82 87.2924C343.072 88.2949 338.308 92.3199 336.354 97.8199C334.399 103.32 335.557 109.445 339.383 113.85C343.21 118.26 349.115 120.265 354.835 119.105Z" fill="black"/>
<path d="M582.23 74.259C598.08 71.588 613.1 82.2675 615.78 98.1165C618.465 113.966 607.795 128.991 591.945 131.686C576.08 134.381 561.04 123.696 558.355 107.831C555.67 91.9665 566.365 76.9325 582.23 74.259ZM589.36 118.956C595.075 118.086 599.88 114.216 601.95 108.816C604.02 103.421 603.03 97.3265 599.355 92.8615C595.68 88.3965 589.895 86.251 584.2 87.24C575.52 88.7465 569.675 96.9565 571.09 105.652C572.505 114.342 580.65 120.276 589.36 118.956Z" fill="black"/>
<path d="M653.24 74.6351C653.96 74.5586 654.68 74.5071 655.405 74.4816C661.305 74.3156 667.48 76.043 671.705 80.3105C674.305 82.9375 676.125 86.2996 677.095 89.8566C679.555 98.8916 678.185 120.372 678.14 130.487L664.65 130.622C663.54 119.917 665.43 108.862 664.105 98.2816C663.675 94.8216 662.45 91.3815 659.57 89.2115C656.1 86.5985 652.4 86.9666 648.4 87.6486C646.765 88.2816 645.255 88.9216 643.99 90.1716C642.165 91.9866 641.12 94.5966 640.6 97.0816C638.9 105.232 640.25 121.442 640.16 130.477C635.67 130.592 631.165 130.552 626.675 130.587C626.1 112.472 626.24 94.1366 626.575 76.0101C628.795 75.9576 638.37 75.1056 639.44 76.7996C640.1 77.8436 639.25 78.7806 640.475 79.7271C644.5 77.5901 647.99 75.5956 652.505 74.7651L653.24 74.6351Z" fill="black"/>
<path d="M288.73 59.2617C292.716 59.1812 296.675 59.3407 300.657 59.5162C300.864 64.8532 301.37 70.4012 300.757 75.7092C305.605 76.1307 310.58 75.9922 315.448 76.0647C315.775 79.8587 315.658 83.6502 315.59 87.4522C310.762 87.5657 305.922 87.4787 301.092 87.4597C300.882 95.2457 299.757 104.351 300.955 112.006C301.32 114.341 302.29 116.641 304.265 118.046C307.58 120.396 311.736 119.496 315.43 118.806C315.749 122.056 315.652 125.361 315.658 128.631C315.644 129.186 315.449 129.596 315.261 130.116C313.383 131.236 311.066 131.316 308.919 131.376C303.329 131.536 295.876 131.096 291.736 126.936C284.192 119.361 286.889 97.6607 286.964 87.4267L276.428 87.4952C276.096 83.6897 276.251 79.8142 276.276 75.9962L287.229 75.8607C287.104 71.3627 286.255 65.1607 287.384 60.8612C287.651 59.8452 287.886 59.7737 288.73 59.2617Z" fill="black"/>
<path d="M523.84 59.5237L537.225 59.5117C537.21 64.8777 537.17 70.2437 537.1 75.6097C541.885 75.9657 546.595 75.8647 551.38 75.7282C551.67 79.5997 551.69 83.4862 551.44 87.3602C546.69 87.6397 541.895 87.5022 537.14 87.4922C537.16 94.9917 536.29 102.912 536.835 110.362C537.035 113.067 537.7 115.842 539.93 117.607C543.415 120.362 547.755 119.392 551.77 118.802C552.14 122.217 552.16 125.697 552.285 129.132L551.83 130.182C549.8 131.047 547.625 131.052 545.445 131.177C539.545 131.507 533.09 131.047 528.565 126.772C520.88 119.507 523.195 97.8117 523.09 87.5217L512.475 87.5937C512.265 83.7567 512.295 79.8822 512.225 76.0387C516.045 76.0092 519.835 75.9112 523.65 75.6852C523.46 70.3347 523.37 64.8597 523.84 59.5237Z" fill="black"/>
<path d="M489.545 76.1223C493.88 75.9913 498.235 76.0528 502.57 76.0438C502.735 83.7198 503.63 128.055 502.01 130.45L489.26 130.52C488.13 124.885 487.78 80.3963 489.545 76.1223Z" fill="black"/>
<path d="M35.9057 5.13271C38.4357 3.05921 40.7457 1.4897 43.9577 0.678705C48.0472 -0.353295 52.5947 0.131194 56.1762 2.45519C60.1542 5.03619 61.9412 8.97721 62.7817 13.4987C64.5817 15.4837 69.1602 16.8477 71.6782 18.1447C79.1097 21.9712 86.3462 26.0037 93.3052 30.6417C112.077 17.6632 143.597 0.347188 166.663 4.71719C173.317 5.97769 179.725 9.41171 183.479 15.2097C188.354 22.7402 188.077 32.8032 186.052 41.2042C182.725 55.0062 175.843 67.7162 167.891 79.3742C164.943 83.6942 161.592 87.9042 158.953 92.4092C156.597 94.4592 154.222 97.3692 152.573 100.019C142.75 111.394 132.152 122.349 120.688 132.084C115.525 136.469 109.742 140.249 104.744 144.779C101.411 146.754 98.0217 148.904 95.0457 151.394L94.6947 151.494C77.4072 162.614 59.3392 173.704 38.5487 176.699C29.4687 178.009 18.0782 177.934 10.4837 172.039C5.37819 168.084 2.86169 161.939 2.17569 155.659C-0.154307 134.319 15.8067 107.954 28.7682 91.6592C26.3622 87.4542 23.1097 83.5042 20.3402 79.5022C10.2977 64.9987 -2.05331 42.5587 1.46219 24.2157C2.67069 17.9097 6.02169 11.9697 11.4527 8.37771C18.8292 3.49971 27.5632 3.47321 35.9057 5.13271ZM95.0117 137.434C109.749 126.279 135.371 106.479 145.065 90.8192C140.257 86.8442 136.171 81.2342 131.813 76.7007C121.75 66.2282 105.916 51.6562 93.5207 44.4837C80.7007 52.1407 66.0412 66.2867 55.7572 77.1907C51.6202 81.5742 47.8137 86.4042 43.4882 90.5842C56.3512 107.874 76.7507 126.079 95.0117 137.434ZM151.63 82.9492C160.587 72.7787 171.768 53.0647 174.811 40.0987C176.208 34.1457 177.005 27.0867 173.454 21.7232C171.069 18.1227 167.293 16.1292 163.098 15.4447C144.53 12.4162 117.633 27.0622 102.897 37.6057C117.901 47.7282 141.081 68.5172 151.63 82.9492ZM35.6927 99.7542C26.6462 114.364 9.28819 137.684 13.5002 155.689C14.3257 159.214 16.2222 162.264 19.3362 164.199C25.9632 168.309 35.6567 166.714 42.7972 164.819C52.7732 162.169 77.4932 151.504 84.8627 144.584C80.8807 142.209 77.1027 138.954 73.4797 136.049C59.7722 125.164 47.1207 113.009 35.6927 99.7542ZM83.3662 37.7377C76.3027 31.8957 66.6682 29.0702 59.9602 22.9837C57.0837 26.3797 53.7652 28.9672 49.2032 29.4582C45.2912 29.8447 41.3897 28.6232 38.3972 26.0732C35.0327 23.2252 33.4847 19.6967 32.4312 15.5292C26.7707 15.3757 20.8832 15.1427 16.5157 19.4387C13.0192 22.8787 12.2462 27.9562 12.3562 32.6547C12.7267 48.4677 25.9862 70.2587 36.3892 81.9892C40.3867 79.4017 50.9352 66.1557 55.9667 61.2917C64.6487 52.8977 74.0662 45.4122 83.3662 37.7377Z" fill="#272727"/>
<path d="M90.4907 69.6077C102.861 67.5977 114.517 75.9987 116.522 88.3692C118.528 100.739 110.123 112.394 97.7522 114.394C85.3867 116.394 73.7397 107.994 71.7352 95.6292C69.7302 83.2642 78.1262 71.6162 90.4907 69.6077Z" fill="#272727"/>
<path d="M28.7682 91.6592C31.1902 93.9742 34.0422 96.8292 35.6927 99.7542C26.6462 114.364 9.28819 137.684 13.5002 155.689C14.3257 159.214 16.2222 162.264 19.3362 164.199C25.9632 168.309 35.6567 166.714 42.7972 164.819C52.7732 162.169 77.4932 151.504 84.8627 144.584C88.5152 145.899 91.7772 149.004 94.6947 151.494C77.4072 162.614 59.3392 173.704 38.5487 176.699C29.4687 178.009 18.0782 177.934 10.4837 172.039C5.37819 168.084 2.86169 161.939 2.17569 155.659C-0.154307 134.319 15.8067 107.954 28.7682 91.6592Z" fill="#272727"/>
<path d="M152.573 100.019C154.222 97.3692 156.597 94.4592 158.953 92.4092C159.644 93.1592 160.329 93.9042 161.046 94.6292C173.372 107.099 187.275 134.724 187.066 152.604C186.989 159.284 185.13 166.024 180.139 170.739C174.247 176.299 165.391 177.524 157.594 177.174C154.418 177.029 151.116 176.684 148.276 175.164L149.049 173.494C150.224 170.959 151 168.549 151.725 165.864C157.931 166.504 164.895 167.449 170.349 163.629C173.369 161.514 174.925 158.324 175.529 154.754C178.647 136.309 162.384 114.404 152.573 100.019Z" fill="#272727"/>
<path d="M124.258 156.639C127.989 153.224 131.781 150.969 137.067 151.289C141.393 151.524 145.417 153.589 148.135 156.959C150.207 159.549 151.244 162.619 151.725 165.864C151 168.549 150.224 170.959 149.049 173.494L148.276 175.164C146.292 176.909 143.623 178.509 141.048 179.154C136.851 180.199 132.409 179.629 128.753 177.254C124.896 174.754 122.697 170.904 121.666 166.504C122.228 163.094 123.123 159.909 124.258 156.639Z" fill="#272727"/>
<path d="M104.744 144.779C111.199 148.539 118.337 152.109 124.258 156.639C123.123 159.909 122.228 163.094 121.666 166.504C121.123 165.954 121.367 166.079 120.701 165.829C111.478 162.319 102.831 157.454 95.0457 151.394C98.0217 148.904 101.411 146.754 104.744 144.779Z" fill="#272727"/>
<path d="M45.618 0.192295C53.7381 -1.11303 61.3943 4.36385 62.7824 12.4699C64.1706 20.576 58.7727 28.2881 50.6796 29.7581C45.3706 30.7224 39.9532 28.7617 36.4925 24.6234C33.0318 20.4855 32.0612 14.8072 33.9482 9.75333C35.8352 4.69946 40.2896 1.04872 45.618 0.192295Z" fill="#272727"/>
<path d="M43.4251 4.06147C44.4043 3.98941 45.4369 3.93746 46.4048 4.16465C47.5136 4.42484 48.2453 4.77453 48.8968 5.73449C50.0743 11.2227 40.8187 14.0267 39.1383 19.3094C39.1002 19.4349 39.0621 19.5612 39.024 19.6871L38.7191 22C37.8351 21.6052 37.3702 21.1212 36.9663 20.2508C35.6746 17.4797 35.7356 13.6319 36.8063 10.8021C38.098 7.37414 40.0871 5.47885 43.4251 4.06147Z" fill="#555455"/>
<path d="M92.0191 69.0497C104.432 68.2301 115.155 77.642 115.953 90.0579C116.751 102.474 107.32 113.18 94.9007 113.955C82.516 114.729 71.8423 105.327 71.0471 92.942C70.2515 80.5571 79.6346 69.867 92.0191 69.0497Z" fill="#272727"/>
<path d="M87.4606 73.1842C88.4984 73.0605 89.5422 72.9349 90.589 73.0382C92.4521 73.2222 93.9905 74.1143 95.0859 75.5941C96.3967 77.3647 97.3465 79.7048 96.8792 81.9156C95.7231 87.379 90.0975 89.0131 86.0533 91.8195C82.7908 94.0845 81.6253 96.6264 80.9842 100.346L80.8473 104C78.8316 101.445 76.9846 98.8547 75.925 95.7655C74.3754 91.2467 74.8002 85.9473 76.9928 81.693C79.2458 77.3211 82.7596 74.6631 87.4606 73.1842Z" fill="#555455"/>
<path d="M489.24 52L502.63 52.0335C502.95 56.453 503.23 60.717 502.405 65.1005C497.845 65.5235 493.34 65.2605 488.78 65.0295C488.6 60.8555 488.06 56.04 489.24 52Z" fill="black"/>
<path d="M134.039 151.199C142.429 149.85 150.341 155.509 151.775 163.886C153.21 172.262 147.632 180.231 139.269 181.75C133.783 182.746 128.185 180.72 124.609 176.444C121.033 172.168 120.03 166.301 121.98 161.078C123.93 155.856 128.533 152.084 134.039 151.199Z" fill="#272727"/>
<path d="M131.996 155.065C133.051 154.989 134.163 154.934 135.205 155.174C136.399 155.448 137.187 155.818 137.889 156.831C139.157 162.624 129.189 165.584 127.38 171.16C127.339 171.292 127.298 171.426 127.257 171.559L126.928 174C125.976 173.583 125.476 173.072 125.041 172.154C123.65 169.229 123.715 165.167 124.868 162.18C126.259 158.562 128.402 156.561 131.996 155.065Z" fill="#555455"/>
<path d="M176.222 83.2002C160.974 102.06 150.399 113.223 146.91 116.537L142.09 111.463C145.268 108.444 155.627 97.5401 170.778 78.7998L176.222 83.2002Z" fill="#D9D9D9"/>
<path d="M103.216 155.949L99.7842 162.051L75.7842 148.551L79.2158 142.449L103.216 155.949ZM114.972 142.608L111.028 148.392L89.0283 133.392L92.9717 127.608L114.972 142.608Z" fill="#D9D9D9"/>
<path d="M57.0645 95.1182L51.9355 99.8818L43.5 91L36.5 82L32.5 77L37.5645 74.1182L57.0645 95.1182ZM99.0664 48.1758L94.9336 53.8242L74.4336 38.8242L78.5664 33.1758L99.0664 48.1758ZM114.065 37.1738L109.935 42.8262L83.9346 23.8262L88.0654 18.1738L114.065 37.1738Z" fill="#D9D9D9"/>
<path d="M155.857 76.0215L141.357 96.5215L135.643 92.4785L150.143 71.9785L155.857 76.0215Z" fill="#D9D9D9"/>
<path d="M37.9746 104.025L33.0254 108.975L18.5254 94.4746L23.4746 89.5254L28.5 91.5L36 100L37.9746 104.025Z" fill="#D9D9D9"/>
</svg>
