<svg width="33" height="32" viewBox="0 0 33 32" fill="none" xmlns="http://www.w3.org/2000/svg">
<path d="M16.1237 6.1709L15.9362 6.06055L12.7155 4.17188L9.16083 6.24414L12.2839 8.30957L13.7595 7.31641L13.8239 7.27246L13.8923 7.31152L16.2507 8.6875L16.4235 8.78906L16.2565 8.89941L12.3884 11.4746L12.32 11.5195L12.2507 11.4756L7.84052 8.63477L7.83759 10.7432V10.8096L7.7829 10.8467L4.24969 13.2393V18.5518L6.54169 20.1035L8.78583 18.5859V17.3359L5.55341 15.123L5.39911 15.0176L5.55536 14.915L7.65887 13.5371L7.72723 13.4932L7.79559 13.5371L10.029 14.9902L12.9743 13.0205L13.1686 12.8906V16.0352L13.114 16.0723L11.4938 17.1826V18.8828L12.7946 19.9023L15.4128 18.4287L15.4206 12.1855V12.1162L15.4802 12.0791L19.3171 9.72461V6.16602L19.5124 6.2998L21.9704 7.98145L22.0251 8.01855V9.88379L23.4099 10.8955L25.4929 9.48438L25.4899 7.21582L20.7868 4.12012L20.7311 4.08398V0.768555L20.9245 0.895508L28.1393 5.61133L28.196 5.64844V5.71582L28.2009 9.55859L31.737 11.9541L31.7917 11.9912V20.2188L31.737 20.2568L28.2009 22.6504L28.196 26.4961V26.5684L28.1345 26.6045L20.6774 30.9502L20.614 30.9863L20.5515 30.9492L17.2712 29.0264L17.2097 28.9902V25.8311L17.3972 25.9414L20.6179 27.8291L24.1716 25.7568L21.0475 23.6904L19.5729 24.666L19.5085 24.709L19.4411 24.6699L17.0827 23.2959L16.9089 23.1943L17.0768 23.083L20.946 20.5254L21.0134 20.4805L21.0827 20.5244L25.4919 23.3662L25.4958 21.2588V21.1924L25.5505 21.1553L29.0837 18.7617V13.4492L26.7907 11.8975L24.5475 13.415V14.6631L27.78 16.8789L27.9343 16.9844L27.778 17.0869L25.6745 18.4648L25.6061 18.5088L25.5378 18.4648L23.3034 17.0107L20.3591 18.9814L20.1647 19.1113V15.9668L20.2194 15.9297L21.8395 14.8184V13.1172L20.5388 12.0996L18.0114 13.5723L17.9684 19.8164L17.9675 19.8867L17.9079 19.9229L14.0163 22.2773V25.8359L13.821 25.7021L11.363 24.0205L11.3083 23.9834V22.1172L9.92255 21.1055L7.83954 22.5166L7.84247 24.7852L12.5466 27.8809L12.6022 27.918V31.2314L12.4089 31.1045L5.19403 26.3906L5.13739 26.3535V26.2861L5.13153 22.4404L1.59637 20.0459L1.54169 20.0088V11.7822L1.59637 11.7451L5.13153 9.34961L5.13739 5.50586V5.43359L5.19891 5.39746L12.6559 1.0498L12.7194 1.01367L12.7819 1.05078L16.0622 2.97363L16.1237 3.00977V6.1709Z" fill="#121212" stroke="#121212" stroke-width="0.25"/>
</svg>
