<svg width="100" height="17" viewBox="0 0 100 17" fill="none" xmlns="http://www.w3.org/2000/svg">
<path d="M3.68 16.12V13.28H6.9C7.44667 13.28 7.85333 13.14 8.12 12.86C8.38667 12.58 8.52 12.1733 8.52 11.64C8.52 11.1067 8.38667 10.7067 8.12 10.44C7.85333 10.16 7.44667 10.02 6.9 10.02H3.68V7.82H6.78C7.80667 7.82 8.72667 7.94667 9.54 8.2C10.3533 8.44 10.9933 8.84 11.46 9.4C11.9267 9.96 12.16 10.7067 12.16 11.64V11.92C12.16 12.8 11.9533 13.5533 11.54 14.18C11.1267 14.8067 10.52 15.2867 9.72 15.62C8.92 15.9533 7.94 16.12 6.78 16.12H3.68ZM0.48 16.12V1.28H4.08V16.12H0.48ZM3.68 9.46V7.26H6.36C6.90667 7.26 7.3 7.12667 7.54 6.86C7.79333 6.58 7.92 6.19333 7.92 5.7C7.92 5.19333 7.79333 4.80667 7.54 4.54C7.3 4.26 6.90667 4.12 6.36 4.12H3.68V1.28H6.2C7.90667 1.28 9.22667 1.64 10.16 2.36C11.0933 3.06667 11.56 4.08 11.56 5.4V5.7C11.56 6.62 11.32 7.36 10.84 7.92C10.3733 8.46667 9.73333 8.86 8.92 9.1C8.12 9.34 7.21333 9.46 6.2 9.46H3.68ZM13.2458 16V4.96H16.1258V9.76H16.0858C16.0858 8.21333 16.4058 7 17.0458 6.12C17.6991 5.24 18.6324 4.8 19.8458 4.8H20.2858V7.92H19.4458C18.6324 7.92 17.9991 8.14 17.5458 8.58C17.1058 9.02 16.8858 9.65333 16.8858 10.48V16H13.2458ZM27.3242 16V12.76H26.7242V9.3C26.7242 8.79333 26.6042 8.42 26.3642 8.18C26.1376 7.92667 25.7576 7.8 25.2242 7.8C24.9709 7.8 24.5976 7.80667 24.1042 7.82C23.6109 7.83333 23.0909 7.85333 22.5442 7.88C21.9976 7.90667 21.4976 7.93333 21.0442 7.96V4.92C21.3642 4.89333 21.7442 4.86667 22.1842 4.84C22.6242 4.81333 23.0776 4.79333 23.5442 4.78C24.0242 4.76667 24.4642 4.76 24.8642 4.76C25.9976 4.76 26.9576 4.92667 27.7442 5.26C28.5442 5.59333 29.1509 6.09333 29.5642 6.76C29.9909 7.42667 30.2042 8.27333 30.2042 9.3V16H27.3242ZM23.8242 16.28C23.0509 16.28 22.3642 16.14 21.7642 15.86C21.1642 15.58 20.6909 15.18 20.3442 14.66C20.0109 14.1267 19.8442 13.4933 19.8442 12.76C19.8442 11.9333 20.0642 11.2667 20.5042 10.76C20.9442 10.24 21.5509 9.86 22.3242 9.62C23.0976 9.38 23.9842 9.26 24.9842 9.26H27.1242V11.14H24.9842C24.4909 11.14 24.1109 11.2667 23.8442 11.52C23.5776 11.76 23.4442 12.0867 23.4442 12.5C23.4442 12.9 23.5776 13.2267 23.8442 13.48C24.1109 13.72 24.4909 13.84 24.9842 13.84C25.3042 13.84 25.5842 13.7867 25.8242 13.68C26.0776 13.56 26.2842 13.36 26.4442 13.08C26.6042 12.8 26.6976 12.4133 26.7242 11.92L27.5642 12.72C27.4976 13.48 27.3109 14.1267 27.0042 14.66C26.7109 15.18 26.2976 15.58 25.7642 15.86C25.2442 16.14 24.5976 16.28 23.8242 16.28ZM32.1564 16V4.96H35.7964V16H32.1564ZM30.7564 7.6V4.96H35.7964V7.6H30.7564ZM33.6564 4.08C32.9897 4.08 32.4964 3.91333 32.1764 3.58C31.8697 3.23333 31.7164 2.79333 31.7164 2.26C31.7164 1.72667 31.8697 1.29333 32.1764 0.959999C32.4964 0.613332 32.9831 0.439999 33.6364 0.439999C34.3031 0.439999 34.7897 0.613332 35.0964 0.959999C35.4031 1.29333 35.5564 1.72667 35.5564 2.26C35.5564 2.79333 35.4031 3.23333 35.0964 3.58C34.7897 3.91333 34.3097 4.08 33.6564 4.08ZM37.4723 16V4.96H40.3523V9.7H40.1923C40.1923 8.55333 40.339 7.60667 40.6323 6.86C40.9257 6.1 41.359 5.53333 41.9323 5.16C42.519 4.78667 43.2257 4.6 44.0523 4.6H44.2123C45.4657 4.6 46.4323 5.02 47.1123 5.86C47.8057 6.68667 48.1523 7.96 48.1523 9.68V16H44.5123V9.58C44.5123 9.07333 44.359 8.66 44.0523 8.34C43.759 8.00667 43.3523 7.84 42.8323 7.84C42.3123 7.84 41.8923 8.00667 41.5723 8.34C41.2657 8.66 41.1123 9.08667 41.1123 9.62V16H37.4723ZM53.8392 16L55.7992 5.32H59.5992L61.8392 16H59.0792L56.7592 5.4H58.4392L56.3192 16H53.8392ZM53.1592 16L53.1392 12.96H55.3392L55.3592 16H53.1592ZM51.3792 16L48.4792 4.96H52.0392L54.7192 16H51.3792ZM60.0592 16L60.0792 12.96H62.2792L62.2592 16H60.0592ZM60.9392 16L63.3592 4.96H66.6792L64.0392 16H60.9392ZM73.9297 16V12.76H73.3297V9.3C73.3297 8.79333 73.2097 8.42 72.9697 8.18C72.743 7.92667 72.363 7.8 71.8297 7.8C71.5764 7.8 71.203 7.80667 70.7097 7.82C70.2164 7.83333 69.6964 7.85333 69.1497 7.88C68.603 7.90667 68.103 7.93333 67.6497 7.96V4.92C67.9697 4.89333 68.3497 4.86667 68.7897 4.84C69.2297 4.81333 69.683 4.79333 70.1497 4.78C70.6297 4.76667 71.0697 4.76 71.4697 4.76C72.603 4.76 73.563 4.92667 74.3497 5.26C75.1497 5.59333 75.7564 6.09333 76.1697 6.76C76.5964 7.42667 76.8097 8.27333 76.8097 9.3V16H73.9297ZM70.4297 16.28C69.6564 16.28 68.9697 16.14 68.3697 15.86C67.7697 15.58 67.2964 15.18 66.9497 14.66C66.6164 14.1267 66.4497 13.4933 66.4497 12.76C66.4497 11.9333 66.6697 11.2667 67.1097 10.76C67.5497 10.24 68.1564 9.86 68.9297 9.62C69.703 9.38 70.5897 9.26 71.5897 9.26H73.7297V11.14H71.5897C71.0964 11.14 70.7164 11.2667 70.4497 11.52C70.183 11.76 70.0497 12.0867 70.0497 12.5C70.0497 12.9 70.183 13.2267 70.4497 13.48C70.7164 13.72 71.0964 13.84 71.5897 13.84C71.9097 13.84 72.1897 13.7867 72.4297 13.68C72.683 13.56 72.8897 13.36 73.0497 13.08C73.2097 12.8 73.303 12.4133 73.3297 11.92L74.1697 12.72C74.103 13.48 73.9164 14.1267 73.6097 14.66C73.3164 15.18 72.903 15.58 72.3697 15.86C71.8497 16.14 71.203 16.28 70.4297 16.28ZM80.0875 16L76.9275 4.96H80.6475L83.5875 16H80.0875ZM81.2475 16V12.96H84.7875V16H81.2475ZM82.5275 16L85.0275 4.96H88.5075L85.7875 16H82.5275ZM94.1016 16.4C93.1682 16.4 92.3416 16.24 91.6216 15.92C90.9016 15.6 90.2949 15.1667 89.8016 14.62C89.3082 14.0733 88.9282 13.46 88.6616 12.78C88.4082 12.1 88.2816 11.4 88.2816 10.68V10.28C88.2816 9.53333 88.4082 8.82 88.6616 8.14C88.9282 7.44667 89.3016 6.83333 89.7816 6.3C90.2749 5.76667 90.8749 5.34667 91.5816 5.04C92.2882 4.72 93.0882 4.56 93.9816 4.56C95.1682 4.56 96.1749 4.82667 97.0016 5.36C97.8282 5.89333 98.4616 6.6 98.9016 7.48C99.3416 8.34667 99.5616 9.29333 99.5616 10.32V11.48H89.8016V9.52H97.4616L96.2016 10.4C96.2016 9.77333 96.1149 9.24667 95.9416 8.82C95.7816 8.38 95.5349 8.04667 95.2016 7.82C94.8816 7.59333 94.4749 7.48 93.9816 7.48C93.5016 7.48 93.0816 7.59333 92.7216 7.82C92.3749 8.03333 92.1082 8.36667 91.9216 8.82C91.7349 9.26 91.6416 9.82 91.6416 10.5C91.6416 11.1133 91.7282 11.6467 91.9016 12.1C92.0749 12.54 92.3416 12.88 92.7016 13.12C93.0616 13.36 93.5282 13.48 94.1016 13.48C94.6082 13.48 95.0216 13.3933 95.3416 13.22C95.6749 13.0467 95.9082 12.8133 96.0416 12.52H99.3616C99.2016 13.2667 98.8816 13.9333 98.4016 14.52C97.9349 15.1067 97.3349 15.5667 96.6016 15.9C95.8816 16.2333 95.0482 16.4 94.1016 16.4Z" fill="#121212"/>
</svg>
